<svg xmlns="http://www.w3.org/2000/svg" viewBox="0 0 800 500" preserveAspectRatio="xMidYMid slice">
<defs>
<linearGradient id="sky" x1="0" y1="0" x2="0" y2="1"><stop offset="0" stop-color="#1a3fa8"/><stop offset=".55" stop-color="#0f2266"/><stop offset="1" stop-color="#070d2b"/></linearGradient>
<radialGradient id="glow" cx=".5" cy=".45" r=".5"><stop offset="0" stop-color="#5ab8ff" stop-opacity=".55"/><stop offset="1" stop-color="#5ab8ff" stop-opacity="0"/></radialGradient>
<linearGradient id="common" x1="0" y1="0" x2="0" y2="1"><stop offset="0" stop-color="#8d96a8"/><stop offset="1" stop-color="#4b5263"/></linearGradient>
<linearGradient id="uncommon" x1="0" y1="0" x2="0" y2="1"><stop offset="0" stop-color="#6bd34a"/><stop offset="1" stop-color="#256d1c"/></linearGradient>
<linearGradient id="rare" x1="0" y1="0" x2="0" y2="1"><stop offset="0" stop-color="#4fc3ff"/><stop offset="1" stop-color="#1557b0"/></linearGradient>
<linearGradient id="epic" x1="0" y1="0" x2="0" y2="1"><stop offset="0" stop-color="#c26bff"/><stop offset="1" stop-color="#5b1ea8"/></linearGradient>
<linearGradient id="legendary" x1="0" y1="0" x2="0" y2="1"><stop offset="0" stop-color="#ffc24a"/><stop offset="1" stop-color="#c26410"/></linearGradient>
<filter id="blur"><feGaussianBlur stdDeviation="18"/></filter>
<filter id="shadow"><feDropShadow dx="0" dy="14" stdDeviation="14" flood-color="#000" flood-opacity=".55"/></filter>
</defs>
<rect width="800" height="500" fill="url(#sky)"/>
<circle cx="420" cy="220" r="300" fill="url(#glow)"/>
<g filter="url(#blur)" opacity=".5"><ellipse cx="120" cy="80" rx="170" ry="40" fill="#8fd0ff"/><ellipse cx="700" cy="120" rx="160" ry="36" fill="#8fd0ff"/></g>
<!-- Karte -->
<g transform="translate(430 250) rotate(-8)" filter="url(#shadow)">
  <rect x="-205" y="-215" width="410" height="440" rx="26" fill="#0b1437" stroke="#ffffff" stroke-opacity=".25" stroke-width="3"/>
  <g font-family="Arial Black, Arial, sans-serif" font-weight="900" font-size="44" fill="#fff" text-anchor="middle">
    <text x="-152" y="-160">B</text><text x="-76" y="-160">I</text><text x="0" y="-160">N</text><text x="76" y="-160">G</text><text x="152" y="-160">O</text>
  </g>
  <g transform="translate(-190 -140)">
    <g id="row">
      <rect x="0" y="0" width="68" height="68" rx="10" fill="url(#rare)"/>
      <rect x="76" y="0" width="68" height="68" rx="10" fill="url(#common)"/>
      <rect x="152" y="0" width="68" height="68" rx="10" fill="url(#epic)"/>
      <rect x="228" y="0" width="68" height="68" rx="10" fill="url(#uncommon)"/>
      <rect x="304" y="0" width="68" height="68" rx="10" fill="url(#legendary)"/>
    </g>
    <g transform="translate(0 76)"><rect x="0" y="0" width="68" height="68" rx="10" fill="url(#epic)"/><rect x="76" y="0" width="68" height="68" rx="10" fill="url(#legendary)"/><rect x="152" y="0" width="68" height="68" rx="10" fill="url(#rare)"/><rect x="228" y="0" width="68" height="68" rx="10" fill="url(#common)"/><rect x="304" y="0" width="68" height="68" rx="10" fill="url(#uncommon)"/></g>
    <g transform="translate(0 152)"><rect x="0" y="0" width="68" height="68" rx="10" fill="url(#uncommon)"/><rect x="76" y="0" width="68" height="68" rx="10" fill="url(#rare)"/><rect x="152" y="0" width="68" height="68" rx="10" fill="#ffb81c"/><rect x="228" y="0" width="68" height="68" rx="10" fill="url(#epic)"/><rect x="304" y="0" width="68" height="68" rx="10" fill="url(#common)"/></g>
    <g transform="translate(0 228)"><rect x="0" y="0" width="68" height="68" rx="10" fill="url(#legendary)"/><rect x="76" y="0" width="68" height="68" rx="10" fill="url(#uncommon)"/><rect x="152" y="0" width="68" height="68" rx="10" fill="url(#common)"/><rect x="228" y="0" width="68" height="68" rx="10" fill="url(#rare)"/><rect x="304" y="0" width="68" height="68" rx="10" fill="url(#epic)"/></g>
    <g transform="translate(0 304)"><rect x="0" y="0" width="68" height="68" rx="10" fill="url(#common)"/><rect x="76" y="0" width="68" height="68" rx="10" fill="url(#epic)"/><rect x="152" y="0" width="68" height="68" rx="10" fill="url(#uncommon)"/><rect x="228" y="0" width="68" height="68" rx="10" fill="url(#legendary)"/><rect x="304" y="0" width="68" height="68" rx="10" fill="url(#rare)"/></g>
    <!-- einfache Item-Silhouetten -->
    <g fill="#fff" opacity=".85">
      <rect x="14" y="26" width="40" height="14" rx="4"/><rect x="40" y="36" width="8" height="16" rx="2"/>
      <path d="M186 16 l14 18 h-8 v22 h-12 v-22 h-8z"/>
      <circle cx="262" cy="34" r="16"/>
      <rect x="318" y="20" width="40" height="28" rx="6"/><rect x="330" y="14" width="16" height="8" rx="3"/>
      <path d="M96 94 h28 l-4 40 h-20z"/>
      <circle cx="186" cy="110" r="14"/><rect x="182" y="84" width="8" height="10" rx="2"/>
      <rect x="236" y="100" width="52" height="10" rx="3"/><rect x="244" y="110" width="10" height="16" rx="2"/>
      <path d="M338 86 l20 20 -20 20 -20 -20z"/>
      <circle cx="34" cy="186" r="18"/>
      <rect x="92" y="172" width="36" height="28" rx="6"/>
      <text x="186" y="198" font-family="Arial Black, Arial, sans-serif" font-size="30" text-anchor="middle" fill="#1a1204">★</text>
      <path d="M262 168 l6 12 13 2 -10 9 3 13 -12 -7 -12 7 3 -13 -10 -9 13 -2z"/>
      <rect x="318" y="180" width="44" height="12" rx="4"/>
    </g>
    <!-- Stempel -->
    <g fill="#ff3d8b" fill-opacity=".72">
      <circle cx="34" cy="34" r="30"/><circle cx="110" cy="110" r="30"/><circle cx="262" cy="262" r="30"/><circle cx="338" cy="338" r="30"/>
      <circle cx="262" cy="34" r="30"/><circle cx="34" cy="262" r="30"/>
    </g>
    <path d="M10 10 L362 362" stroke="#ff3d8b" stroke-width="10" stroke-linecap="round" opacity=".55"/>
  </g>
</g>
<!-- Konfetti -->
<g opacity=".9">
  <rect x="90" y="120" width="14" height="6" rx="2" fill="#ffb81c" transform="rotate(30 97 123)"/>
  <rect x="160" y="300" width="14" height="6" rx="2" fill="#ff3d8b" transform="rotate(-20 167 303)"/>
  <rect x="700" y="260" width="14" height="6" rx="2" fill="#3ddc84" transform="rotate(50 707 263)"/>
  <rect x="660" y="60" width="14" height="6" rx="2" fill="#c26bff" transform="rotate(10 667 63)"/>
  <circle cx="120" cy="420" r="5" fill="#4fc3ff"/><circle cx="740" cy="400" r="5" fill="#ffb81c"/>
</g>
</svg>
