<svg xmlns="http://www.w3.org/2000/svg" viewBox="0 0 800 500" preserveAspectRatio="xMidYMid slice"><defs><linearGradient id="s" x1="0" y1="0" x2="0" y2="1"><stop offset="0" stop-color="#1c1430"/><stop offset=".6" stop-color="#5a3a3a"/><stop offset="1" stop-color="#d8954a"/></linearGradient></defs>
<rect width="800" height="500" fill="url(#s)"/><circle cx="389" cy="91" r="1.5" fill="#fff" opacity="0.52"/><circle cx="442" cy="22" r="0.7" fill="#fff" opacity="0.63"/><circle cx="381" cy="138" r="1.7" fill="#fff" opacity="0.44"/><circle cx="372" cy="188" r="1.7" fill="#fff" opacity="0.32"/><circle cx="420" cy="63" r="1.6" fill="#fff" opacity="0.84"/><circle cx="41" cy="96" r="0.6" fill="#fff" opacity="0.34"/><circle cx="63" cy="65" r="0.8" fill="#fff" opacity="0.34"/><circle cx="620" cy="86" r="1.0" fill="#fff" opacity="0.53"/><circle cx="631" cy="11" r="0.9" fill="#fff" opacity="0.80"/><circle cx="324" cy="70" r="1.0" fill="#fff" opacity="0.81"/><circle cx="609" cy="206" r="1.4" fill="#fff" opacity="0.96"/><circle cx="24" cy="211" r="0.9" fill="#fff" opacity="0.63"/><circle cx="476" cy="198" r="1.1" fill="#fff" opacity="0.48"/><circle cx="440" cy="208" r="1.2" fill="#fff" opacity="0.95"/><circle cx="187" cy="2" r="1.6" fill="#fff" opacity="0.82"/><circle cx="708" cy="197" r="0.8" fill="#fff" opacity="0.47"/><circle cx="327" cy="117" r="1.0" fill="#fff" opacity="0.85"/><circle cx="80" cy="131" r="0.8" fill="#fff" opacity="0.83"/><circle cx="253" cy="104" r="0.7" fill="#fff" opacity="0.32"/><circle cx="565" cy="139" r="1.0" fill="#fff" opacity="0.99"/><circle cx="107" cy="18" r="0.9" fill="#fff" opacity="0.36"/><circle cx="98" cy="107" r="1.2" fill="#fff" opacity="0.80"/><circle cx="457" cy="44" r="0.9" fill="#fff" opacity="0.59"/><circle cx="635" cy="172" r="0.9" fill="#fff" opacity="0.68"/><circle cx="792" cy="170" r="1.5" fill="#fff" opacity="0.85"/><circle cx="300" cy="75" r="0.9" fill="#fff" opacity="0.49"/><circle cx="260" cy="188" r="0.9" fill="#fff" opacity="0.61"/><circle cx="190" cy="62" r="0.9" fill="#fff" opacity="0.50"/><circle cx="592" cy="48" r="1.0" fill="#fff" opacity="0.58"/><circle cx="251" cy="129" r="1.2" fill="#fff" opacity="0.75"/><circle cx="102" cy="167" r="1.2" fill="#fff" opacity="0.33"/><circle cx="4" cy="121" r="1.7" fill="#fff" opacity="0.46"/><circle cx="459" cy="95" r="0.6" fill="#fff" opacity="0.51"/><circle cx="122" cy="12" r="0.8" fill="#fff" opacity="0.98"/><circle cx="597" cy="49" r="1.7" fill="#fff" opacity="0.56"/><circle cx="182" cy="114" r="1.3" fill="#fff" opacity="0.84"/><circle cx="680" cy="1" r="0.7" fill="#fff" opacity="0.72"/><circle cx="634" cy="89" r="0.9" fill="#fff" opacity="0.56"/><circle cx="144" cy="11" r="0.8" fill="#fff" opacity="0.48"/><circle cx="613" cy="187" r="1.4" fill="#fff" opacity="0.44"/><circle cx="11" cy="209" r="1.0" fill="#fff" opacity="0.77"/><circle cx="189" cy="158" r="1.0" fill="#fff" opacity="0.44"/><circle cx="507" cy="140" r="1.2" fill="#fff" opacity="0.59"/><circle cx="404" cy="169" r="1.3" fill="#fff" opacity="0.75"/><circle cx="93" cy="167" r="0.8" fill="#fff" opacity="0.79"/><circle cx="419" cy="72" r="1.4" fill="#fff" opacity="0.59"/><circle cx="52" cy="79" r="1.5" fill="#fff" opacity="0.92"/><circle cx="424" cy="106" r="0.6" fill="#fff" opacity="0.84"/><circle cx="372" cy="164" r="0.8" fill="#fff" opacity="0.81"/><circle cx="208" cy="1" r="1.1" fill="#fff" opacity="0.41"/>
<g fill="#160e18"><path d="M0 500V400Q200 340 400 380T800 360V500z"/>
<path d="M470 380V250h20v-30l15-25 15 25v30h20v-60h-8l23-40 23 40h-8v60h20v-30l15-25 15 25v30h20v130z"/>
<path d="M545 160l23-60 23 60z"/></g><g fill="#ffcf6b" opacity=".85"><rect x="510" y="300" width="8" height="14"/><rect x="560" y="280" width="8" height="14"/><rect x="610" y="300" width="8" height="14"/></g>
<path d="M60 120q40-30 80 0q-40-10-80 0zM140 160q30-22 60 0q-30-8-60 0z" fill="#160e18" opacity=".7"/></svg>
