<svg xmlns="http://www.w3.org/2000/svg" viewBox="0 0 800 500" preserveAspectRatio="xMidYMid slice"><defs><linearGradient id="k" x1="0" y1="0" x2="0" y2="1"><stop offset="0" stop-color="#ffd6ec"/><stop offset=".6" stop-color="#e7c7ff"/><stop offset="1" stop-color="#bfe6ff"/></linearGradient></defs>
<rect width="800" height="500" fill="url(#k)"/><g transform="translate(80 90) scale(1)" fill="#fff" opacity=".85"><circle cx="0" cy="0" r="30"/><circle cx="35" cy="-12" r="38"/><circle cx="72" cy="0" r="28"/><rect x="0" y="0" width="72" height="28" rx="14"/></g><g transform="translate(560 70) scale(1.2)" fill="#fff" opacity=".85"><circle cx="0" cy="0" r="30"/><circle cx="35" cy="-12" r="38"/><circle cx="72" cy="0" r="28"/><rect x="0" y="0" width="72" height="28" rx="14"/></g><g transform="translate(300 420) scale(0.9)" fill="#fff" opacity=".85"><circle cx="0" cy="0" r="30"/><circle cx="35" cy="-12" r="38"/><circle cx="72" cy="0" r="28"/><rect x="0" y="0" width="72" height="28" rx="14"/></g><g transform="translate(650 380) scale(0.8)" fill="#fff" opacity=".85"><circle cx="0" cy="0" r="30"/><circle cx="35" cy="-12" r="38"/><circle cx="72" cy="0" r="28"/><rect x="0" y="0" width="72" height="28" rx="14"/></g><path transform="translate(178 356) scale(1.0356807025491899)" d="M0 8C0-6 18-8 20 4 22-8 40-6 40 8 40 22 20 32 20 36 20 32 0 22 0 8z" fill="#ff6fb5"/><path transform="translate(353 388) scale(1.0908374510445777)" d="M0 8C0-6 18-8 20 4 22-8 40-6 40 8 40 22 20 32 20 36 20 32 0 22 0 8z" fill="#ffb3dc"/><path transform="translate(310 390) scale(0.8712243019486343)" d="M0 8C0-6 18-8 20 4 22-8 40-6 40 8 40 22 20 32 20 36 20 32 0 22 0 8z" fill="#ffb3dc"/><path transform="translate(64 442) scale(1.0011737259403364)" d="M0 8C0-6 18-8 20 4 22-8 40-6 40 8 40 22 20 32 20 36 20 32 0 22 0 8z" fill="#ff6fb5"/><path transform="translate(737 435) scale(0.8033246210484547)" d="M0 8C0-6 18-8 20 4 22-8 40-6 40 8 40 22 20 32 20 36 20 32 0 22 0 8z" fill="#ff8fc8"/><path transform="translate(722 319) scale(0.9787803123570818)" d="M0 8C0-6 18-8 20 4 22-8 40-6 40 8 40 22 20 32 20 36 20 32 0 22 0 8z" fill="#ffb3dc"/><path transform="translate(107 35) scale(0.5251172608126395)" d="M0 8C0-6 18-8 20 4 22-8 40-6 40 8 40 22 20 32 20 36 20 32 0 22 0 8z" fill="#c9a2ff"/><path transform="translate(127 212) scale(1.0014927198799826)" d="M0 8C0-6 18-8 20 4 22-8 40-6 40 8 40 22 20 32 20 36 20 32 0 22 0 8z" fill="#ff8fc8"/><path transform="translate(662 29) scale(0.8757358753596716)" d="M0 8C0-6 18-8 20 4 22-8 40-6 40 8 40 22 20 32 20 36 20 32 0 22 0 8z" fill="#ffb3dc"/><path transform="translate(521 155) scale(0.5019885962767088)" d="M0 8C0-6 18-8 20 4 22-8 40-6 40 8 40 22 20 32 20 36 20 32 0 22 0 8z" fill="#ff8fc8"/><path transform="translate(535 294) scale(0.5551651566891349)" d="M0 8C0-6 18-8 20 4 22-8 40-6 40 8 40 22 20 32 20 36 20 32 0 22 0 8z" fill="#ff8fc8"/><path transform="translate(505 149) scale(0.9855312678565831)" d="M0 8C0-6 18-8 20 4 22-8 40-6 40 8 40 22 20 32 20 36 20 32 0 22 0 8z" fill="#c9a2ff"/><path transform="translate(260 393) scale(0.9538648405904362)" d="M0 8C0-6 18-8 20 4 22-8 40-6 40 8 40 22 20 32 20 36 20 32 0 22 0 8z" fill="#ffb3dc"/><path transform="translate(685 255) scale(0.7963692673095968)" d="M0 8C0-6 18-8 20 4 22-8 40-6 40 8 40 22 20 32 20 36 20 32 0 22 0 8z" fill="#ff6fb5"/><path transform="translate(98 265) scale(1.0462799967096594)" d="M0 8C0-6 18-8 20 4 22-8 40-6 40 8 40 22 20 32 20 36 20 32 0 22 0 8z" fill="#c9a2ff"/><path transform="translate(67 335) scale(0.8796757056240573)" d="M0 8C0-6 18-8 20 4 22-8 40-6 40 8 40 22 20 32 20 36 20 32 0 22 0 8z" fill="#ffb3dc"/><path transform="translate(99 327) scale(0.5884550437261444)" d="M0 8C0-6 18-8 20 4 22-8 40-6 40 8 40 22 20 32 20 36 20 32 0 22 0 8z" fill="#c9a2ff"/><path transform="translate(687 400) scale(0.9157320945162348)" d="M0 8C0-6 18-8 20 4 22-8 40-6 40 8 40 22 20 32 20 36 20 32 0 22 0 8z" fill="#ffb3dc"/><circle cx="12" cy="246" r="1.6" fill="#fff" opacity="0.49"/><circle cx="688" cy="50" r="2.5" fill="#fff" opacity="0.77"/><circle cx="297" cy="362" r="2.3" fill="#fff" opacity="0.63"/><circle cx="477" cy="392" r="1.7" fill="#fff" opacity="0.93"/><circle cx="204" cy="159" r="3.0" fill="#fff" opacity="0.96"/><circle cx="17" cy="148" r="2.2" fill="#fff" opacity="0.87"/><circle cx="460" cy="137" r="2.1" fill="#fff" opacity="0.94"/><circle cx="215" cy="38" r="2.4" fill="#fff" opacity="0.40"/><circle cx="536" cy="134" r="2.9" fill="#fff" opacity="0.39"/><circle cx="646" cy="260" r="1.9" fill="#fff" opacity="0.38"/><circle cx="373" cy="118" r="2.2" fill="#fff" opacity="0.91"/><circle cx="403" cy="12" r="1.7" fill="#fff" opacity="0.96"/><circle cx="697" cy="230" r="2.1" fill="#fff" opacity="0.81"/><circle cx="426" cy="176" r="2.1" fill="#fff" opacity="0.38"/><circle cx="339" cy="0" r="2.0" fill="#fff" opacity="0.54"/><circle cx="407" cy="61" r="2.9" fill="#fff" opacity="0.44"/><circle cx="12" cy="461" r="2.6" fill="#fff" opacity="0.48"/><circle cx="66" cy="201" r="2.1" fill="#fff" opacity="0.91"/><circle cx="78" cy="184" r="2.9" fill="#fff" opacity="0.83"/><circle cx="49" cy="143" r="1.7" fill="#fff" opacity="0.88"/><circle cx="292" cy="325" r="2.9" fill="#fff" opacity="0.47"/><circle cx="272" cy="223" r="2.3" fill="#fff" opacity="0.43"/><circle cx="382" cy="401" r="2.9" fill="#fff" opacity="0.92"/><circle cx="779" cy="323" r="2.1" fill="#fff" opacity="0.91"/><circle cx="567" cy="281" r="1.8" fill="#fff" opacity="0.36"/><circle cx="749" cy="210" r="2.2" fill="#fff" opacity="0.83"/><circle cx="659" cy="445" r="1.9" fill="#fff" opacity="0.33"/><circle cx="563" cy="65" r="1.8" fill="#fff" opacity="0.59"/><circle cx="288" cy="152" r="1.9" fill="#fff" opacity="0.82"/><circle cx="668" cy="133" r="2.1" fill="#fff" opacity="0.47"/><circle cx="494" cy="285" r="2.5" fill="#fff" opacity="0.38"/><circle cx="658" cy="82" r="1.6" fill="#fff" opacity="0.65"/><circle cx="509" cy="281" r="1.8" fill="#fff" opacity="0.93"/><circle cx="777" cy="230" r="2.1" fill="#fff" opacity="0.68"/><circle cx="249" cy="46" r="1.8" fill="#fff" opacity="0.69"/><circle cx="326" cy="122" r="2.1" fill="#fff" opacity="0.87"/><circle cx="206" cy="454" r="1.5" fill="#fff" opacity="0.91"/><circle cx="392" cy="211" r="2.6" fill="#fff" opacity="0.45"/><circle cx="276" cy="173" r="2.6" fill="#fff" opacity="0.65"/><circle cx="588" cy="495" r="2.0" fill="#fff" opacity="0.78"/></svg>
