<svg xmlns="http://www.w3.org/2000/svg" viewBox="0 0 800 500" preserveAspectRatio="xMidYMid slice"><defs><radialGradient id="neb" cx=".3" cy=".35" r=".6"><stop offset="0" stop-color="#5b3fd6" stop-opacity=".55"/><stop offset="1" stop-color="#0a0b24" stop-opacity="0"/></radialGradient>
<radialGradient id="neb2" cx=".8" cy=".7" r=".5"><stop offset="0" stop-color="#2f8fff" stop-opacity=".4"/><stop offset="1" stop-color="#0a0b24" stop-opacity="0"/></radialGradient>
<radialGradient id="pl" cx=".35" cy=".3" r=".8"><stop offset="0" stop-color="#ffb3d9"/><stop offset=".5" stop-color="#9a5cff"/><stop offset="1" stop-color="#2a1660"/></radialGradient></defs>
<rect width="800" height="500" fill="#07081c"/><rect width="800" height="500" fill="url(#neb)"/><rect width="800" height="500" fill="url(#neb2)"/><circle cx="331" cy="485" r="0.8" fill="#fff" opacity="0.76"/><circle cx="74" cy="420" r="1.2" fill="#fff" opacity="0.56"/><circle cx="59" cy="465" r="1.2" fill="#fff" opacity="0.33"/><circle cx="444" cy="214" r="0.7" fill="#fff" opacity="0.36"/><circle cx="434" cy="30" r="1.6" fill="#fff" opacity="0.39"/><circle cx="228" cy="322" r="1.4" fill="#fff" opacity="0.96"/><circle cx="590" cy="299" r="1.1" fill="#fff" opacity="0.98"/><circle cx="47" cy="285" r="1.6" fill="#fff" opacity="0.50"/><circle cx="147" cy="276" r="0.7" fill="#fff" opacity="0.52"/><circle cx="698" cy="92" r="0.7" fill="#fff" opacity="0.70"/><circle cx="192" cy="190" r="0.7" fill="#fff" opacity="0.80"/><circle cx="577" cy="30" r="1.3" fill="#fff" opacity="0.65"/><circle cx="544" cy="218" r="1.5" fill="#fff" opacity="0.63"/><circle cx="464" cy="185" r="1.0" fill="#fff" opacity="0.86"/><circle cx="715" cy="399" r="0.9" fill="#fff" opacity="0.70"/><circle cx="537" cy="253" r="1.7" fill="#fff" opacity="0.81"/><circle cx="294" cy="311" r="1.8" fill="#fff" opacity="0.38"/><circle cx="428" cy="84" r="1.5" fill="#fff" opacity="0.41"/><circle cx="500" cy="215" r="0.6" fill="#fff" opacity="0.77"/><circle cx="782" cy="285" r="1.3" fill="#fff" opacity="0.91"/><circle cx="321" cy="174" r="1.4" fill="#fff" opacity="0.72"/><circle cx="593" cy="408" r="1.1" fill="#fff" opacity="0.89"/><circle cx="276" cy="242" r="1.4" fill="#fff" opacity="0.35"/><circle cx="748" cy="359" r="1.0" fill="#fff" opacity="0.70"/><circle cx="697" cy="420" r="1.1" fill="#fff" opacity="0.80"/><circle cx="684" cy="177" r="0.6" fill="#fff" opacity="0.62"/><circle cx="172" cy="312" r="0.7" fill="#fff" opacity="0.34"/><circle cx="786" cy="147" r="0.8" fill="#fff" opacity="0.47"/><circle cx="400" cy="469" r="1.6" fill="#fff" opacity="0.36"/><circle cx="459" cy="205" r="1.3" fill="#fff" opacity="0.92"/><circle cx="440" cy="442" r="1.3" fill="#fff" opacity="0.79"/><circle cx="367" cy="349" r="1.7" fill="#fff" opacity="0.97"/><circle cx="154" cy="42" r="0.8" fill="#fff" opacity="0.46"/><circle cx="238" cy="6" r="1.2" fill="#fff" opacity="0.71"/><circle cx="269" cy="144" r="0.6" fill="#fff" opacity="0.59"/><circle cx="378" cy="312" r="1.3" fill="#fff" opacity="0.97"/><circle cx="707" cy="439" r="1.2" fill="#fff" opacity="0.73"/><circle cx="692" cy="378" r="0.7" fill="#fff" opacity="0.93"/><circle cx="798" cy="487" r="1.6" fill="#fff" opacity="0.86"/><circle cx="401" cy="203" r="1.1" fill="#fff" opacity="0.37"/><circle cx="649" cy="205" r="0.7" fill="#fff" opacity="0.35"/><circle cx="213" cy="225" r="0.8" fill="#fff" opacity="0.54"/><circle cx="53" cy="52" r="0.6" fill="#fff" opacity="0.41"/><circle cx="103" cy="485" r="1.0" fill="#fff" opacity="0.32"/><circle cx="212" cy="314" r="1.1" fill="#fff" opacity="0.74"/><circle cx="355" cy="308" r="1.0" fill="#fff" opacity="0.39"/><circle cx="499" cy="500" r="1.2" fill="#fff" opacity="0.64"/><circle cx="87" cy="73" r="0.7" fill="#fff" opacity="0.54"/><circle cx="271" cy="245" r="1.6" fill="#fff" opacity="0.41"/><circle cx="23" cy="105" r="1.7" fill="#fff" opacity="0.67"/><circle cx="150" cy="353" r="1.3" fill="#fff" opacity="0.32"/><circle cx="540" cy="152" r="1.8" fill="#fff" opacity="0.90"/><circle cx="712" cy="432" r="0.9" fill="#fff" opacity="0.56"/><circle cx="171" cy="182" r="1.5" fill="#fff" opacity="0.67"/><circle cx="797" cy="257" r="1.0" fill="#fff" opacity="0.46"/><circle cx="776" cy="436" r="0.8" fill="#fff" opacity="0.47"/><circle cx="410" cy="378" r="1.6" fill="#fff" opacity="0.44"/><circle cx="504" cy="182" r="1.5" fill="#fff" opacity="0.99"/><circle cx="286" cy="241" r="0.9" fill="#fff" opacity="0.78"/><circle cx="352" cy="228" r="1.6" fill="#fff" opacity="0.81"/><circle cx="357" cy="488" r="1.8" fill="#fff" opacity="0.36"/><circle cx="104" cy="116" r="1.2" fill="#fff" opacity="0.54"/><circle cx="494" cy="319" r="1.8" fill="#fff" opacity="0.73"/><circle cx="1" cy="245" r="1.7" fill="#fff" opacity="0.54"/><circle cx="658" cy="43" r="1.6" fill="#fff" opacity="0.38"/><circle cx="397" cy="400" r="1.5" fill="#fff" opacity="0.44"/><circle cx="182" cy="222" r="1.5" fill="#fff" opacity="0.53"/><circle cx="739" cy="202" r="1.2" fill="#fff" opacity="0.82"/><circle cx="86" cy="371" r="0.8" fill="#fff" opacity="1.00"/><circle cx="28" cy="77" r="1.3" fill="#fff" opacity="0.63"/><circle cx="671" cy="74" r="1.3" fill="#fff" opacity="0.72"/><circle cx="485" cy="336" r="1.7" fill="#fff" opacity="0.41"/><circle cx="561" cy="67" r="0.6" fill="#fff" opacity="0.86"/><circle cx="743" cy="332" r="0.7" fill="#fff" opacity="0.82"/><circle cx="142" cy="222" r="1.8" fill="#fff" opacity="0.44"/><circle cx="216" cy="14" r="0.9" fill="#fff" opacity="0.51"/><circle cx="246" cy="391" r="1.3" fill="#fff" opacity="0.48"/><circle cx="429" cy="427" r="0.8" fill="#fff" opacity="0.94"/><circle cx="362" cy="459" r="1.1" fill="#fff" opacity="0.71"/><circle cx="529" cy="215" r="1.6" fill="#fff" opacity="0.91"/><circle cx="133" cy="272" r="0.8" fill="#fff" opacity="0.66"/><circle cx="450" cy="397" r="0.8" fill="#fff" opacity="0.30"/><circle cx="153" cy="88" r="0.8" fill="#fff" opacity="0.73"/><circle cx="123" cy="284" r="0.7" fill="#fff" opacity="0.78"/><circle cx="543" cy="284" r="1.2" fill="#fff" opacity="0.84"/><circle cx="573" cy="29" r="0.9" fill="#fff" opacity="0.49"/><circle cx="790" cy="50" r="1.2" fill="#fff" opacity="0.69"/><circle cx="778" cy="457" r="1.7" fill="#fff" opacity="0.61"/><circle cx="627" cy="498" r="1.2" fill="#fff" opacity="0.66"/><circle cx="709" cy="141" r="1.1" fill="#fff" opacity="0.67"/><circle cx="489" cy="259" r="1.7" fill="#fff" opacity="0.79"/><circle cx="265" cy="472" r="1.3" fill="#fff" opacity="0.96"/><circle cx="458" cy="70" r="1.1" fill="#fff" opacity="0.57"/><circle cx="323" cy="37" r="1.4" fill="#fff" opacity="0.60"/><circle cx="217" cy="342" r="1.0" fill="#fff" opacity="0.39"/><circle cx="795" cy="79" r="1.7" fill="#fff" opacity="0.75"/><circle cx="374" cy="73" r="0.9" fill="#fff" opacity="0.40"/><circle cx="478" cy="112" r="1.5" fill="#fff" opacity="0.37"/><circle cx="498" cy="83" r="1.8" fill="#fff" opacity="0.88"/><circle cx="165" cy="361" r="1.1" fill="#fff" opacity="0.66"/><circle cx="347" cy="215" r="0.8" fill="#fff" opacity="0.52"/><circle cx="739" cy="187" r="0.6" fill="#fff" opacity="0.69"/><circle cx="451" cy="360" r="0.6" fill="#fff" opacity="0.53"/><circle cx="638" cy="151" r="1.2" fill="#fff" opacity="0.35"/><circle cx="234" cy="497" r="1.7" fill="#fff" opacity="0.36"/><circle cx="278" cy="20" r="1.7" fill="#fff" opacity="0.43"/><circle cx="773" cy="66" r="1.6" fill="#fff" opacity="0.89"/><circle cx="692" cy="419" r="1.7" fill="#fff" opacity="0.58"/><circle cx="549" cy="470" r="1.2" fill="#fff" opacity="0.65"/><circle cx="334" cy="45" r="0.9" fill="#fff" opacity="0.86"/><circle cx="187" cy="217" r="1.7" fill="#fff" opacity="0.49"/><circle cx="17" cy="324" r="0.7" fill="#fff" opacity="0.48"/><circle cx="622" cy="438" r="0.9" fill="#fff" opacity="0.49"/><circle cx="124" cy="232" r="0.6" fill="#fff" opacity="1.00"/><circle cx="427" cy="474" r="1.7" fill="#fff" opacity="0.74"/><circle cx="44" cy="269" r="1.5" fill="#fff" opacity="0.96"/><circle cx="165" cy="134" r="0.7" fill="#fff" opacity="0.44"/><circle cx="319" cy="321" r="1.0" fill="#fff" opacity="0.83"/><circle cx="296" cy="228" r="1.2" fill="#fff" opacity="0.42"/><circle cx="355" cy="411" r="0.6" fill="#fff" opacity="0.48"/><circle cx="15" cy="9" r="1.5" fill="#fff" opacity="0.69"/><circle cx="194" cy="263" r="1.2" fill="#fff" opacity="0.95"/><circle cx="108" cy="337" r="1.6" fill="#fff" opacity="0.60"/><circle cx="506" cy="279" r="1.6" fill="#fff" opacity="0.58"/><circle cx="518" cy="157" r="1.4" fill="#fff" opacity="0.99"/><circle cx="350" cy="101" r="1.6" fill="#fff" opacity="0.79"/><circle cx="651" cy="71" r="1.1" fill="#fff" opacity="0.54"/><circle cx="55" cy="428" r="0.8" fill="#fff" opacity="0.35"/><circle cx="758" cy="450" r="0.9" fill="#fff" opacity="0.41"/><circle cx="86" cy="340" r="1.6" fill="#fff" opacity="0.91"/><circle cx="686" cy="497" r="0.9" fill="#fff" opacity="0.47"/><circle cx="300" cy="23" r="1.2" fill="#fff" opacity="0.41"/><circle cx="456" cy="1" r="0.9" fill="#fff" opacity="0.97"/><circle cx="560" cy="165" r="0.9" fill="#fff" opacity="0.98"/><circle cx="316" cy="111" r="1.0" fill="#fff" opacity="0.30"/><circle cx="390" cy="42" r="1.2" fill="#fff" opacity="0.65"/><circle cx="205" cy="127" r="1.2" fill="#fff" opacity="0.30"/><circle cx="270" cy="418" r="0.7" fill="#fff" opacity="0.58"/><circle cx="42" cy="201" r="0.6" fill="#fff" opacity="0.51"/><circle cx="238" cy="43" r="1.3" fill="#fff" opacity="0.67"/>
<circle cx="640" cy="120" r="70" fill="url(#pl)"/><ellipse cx="640" cy="122" rx="118" ry="22" fill="none" stroke="#ffd6f0" stroke-opacity=".55" stroke-width="5" transform="rotate(-14 640 122)"/>
<circle cx="140" cy="410" r="26" fill="#3b4c9e"/><circle cx="132" cy="402" r="26" fill="#6e86ff" opacity=".35"/></svg>
