<svg xmlns="http://www.w3.org/2000/svg" viewBox="0 0 800 500" preserveAspectRatio="xMidYMid slice"><defs><linearGradient id="x" x1="0" y1="0" x2="0" y2="1"><stop offset="0" stop-color="#0d2238"/><stop offset=".7" stop-color="#1e4560"/><stop offset="1" stop-color="#e8f4ff"/></linearGradient></defs>
<rect width="800" height="500" fill="url(#x)"/><circle cx="447" cy="381" r="2.8" fill="#fff" opacity="0.44"/><circle cx="671" cy="231" r="1.4" fill="#fff" opacity="0.95"/><circle cx="267" cy="118" r="2.3" fill="#fff" opacity="0.47"/><circle cx="767" cy="473" r="2.4" fill="#fff" opacity="0.86"/><circle cx="728" cy="26" r="1.5" fill="#fff" opacity="0.70"/><circle cx="446" cy="351" r="2.6" fill="#fff" opacity="0.69"/><circle cx="271" cy="151" r="2.3" fill="#fff" opacity="0.93"/><circle cx="222" cy="43" r="2.8" fill="#fff" opacity="0.41"/><circle cx="266" cy="463" r="1.5" fill="#fff" opacity="0.81"/><circle cx="163" cy="382" r="2.8" fill="#fff" opacity="0.51"/><circle cx="398" cy="168" r="2.2" fill="#fff" opacity="0.61"/><circle cx="645" cy="471" r="2.4" fill="#fff" opacity="0.77"/><circle cx="549" cy="240" r="1.9" fill="#fff" opacity="0.69"/><circle cx="6" cy="439" r="1.1" fill="#fff" opacity="0.93"/><circle cx="239" cy="292" r="2.8" fill="#fff" opacity="0.83"/><circle cx="400" cy="318" r="2.2" fill="#fff" opacity="0.71"/><circle cx="175" cy="74" r="1.1" fill="#fff" opacity="0.46"/><circle cx="636" cy="475" r="1.3" fill="#fff" opacity="0.94"/><circle cx="717" cy="14" r="1.1" fill="#fff" opacity="0.48"/><circle cx="658" cy="324" r="1.1" fill="#fff" opacity="0.44"/><circle cx="47" cy="33" r="2.7" fill="#fff" opacity="0.82"/><circle cx="204" cy="418" r="2.9" fill="#fff" opacity="0.69"/><circle cx="680" cy="33" r="2.8" fill="#fff" opacity="0.82"/><circle cx="728" cy="483" r="1.8" fill="#fff" opacity="0.54"/><circle cx="208" cy="57" r="1.1" fill="#fff" opacity="0.92"/><circle cx="771" cy="324" r="1.2" fill="#fff" opacity="0.81"/><circle cx="647" cy="147" r="2.0" fill="#fff" opacity="0.47"/><circle cx="775" cy="330" r="1.4" fill="#fff" opacity="0.58"/><circle cx="433" cy="133" r="1.0" fill="#fff" opacity="0.54"/><circle cx="289" cy="24" r="2.4" fill="#fff" opacity="0.60"/><circle cx="328" cy="393" r="2.9" fill="#fff" opacity="0.68"/><circle cx="294" cy="316" r="2.5" fill="#fff" opacity="0.83"/><circle cx="31" cy="223" r="2.0" fill="#fff" opacity="0.45"/><circle cx="480" cy="360" r="1.1" fill="#fff" opacity="0.71"/><circle cx="731" cy="441" r="2.7" fill="#fff" opacity="0.72"/><circle cx="294" cy="87" r="1.9" fill="#fff" opacity="0.69"/><circle cx="295" cy="390" r="2.5" fill="#fff" opacity="0.43"/><circle cx="356" cy="251" r="1.2" fill="#fff" opacity="0.78"/><circle cx="188" cy="495" r="2.0" fill="#fff" opacity="0.59"/><circle cx="527" cy="133" r="2.2" fill="#fff" opacity="0.49"/><circle cx="219" cy="480" r="2.4" fill="#fff" opacity="0.67"/><circle cx="112" cy="480" r="2.3" fill="#fff" opacity="0.44"/><circle cx="713" cy="287" r="2.6" fill="#fff" opacity="0.75"/><circle cx="364" cy="48" r="1.8" fill="#fff" opacity="0.62"/><circle cx="763" cy="44" r="1.8" fill="#fff" opacity="0.76"/><circle cx="380" cy="105" r="1.6" fill="#fff" opacity="0.64"/><circle cx="558" cy="256" r="1.3" fill="#fff" opacity="0.94"/><circle cx="645" cy="119" r="2.9" fill="#fff" opacity="0.47"/><circle cx="608" cy="386" r="2.4" fill="#fff" opacity="0.73"/><circle cx="34" cy="178" r="2.2" fill="#fff" opacity="0.69"/><circle cx="461" cy="338" r="2.1" fill="#fff" opacity="0.58"/><circle cx="474" cy="224" r="2.4" fill="#fff" opacity="0.54"/><circle cx="236" cy="64" r="1.7" fill="#fff" opacity="0.75"/><circle cx="713" cy="121" r="2.0" fill="#fff" opacity="0.55"/><circle cx="772" cy="360" r="2.7" fill="#fff" opacity="0.74"/><circle cx="740" cy="79" r="2.9" fill="#fff" opacity="0.80"/><circle cx="617" cy="267" r="1.7" fill="#fff" opacity="0.53"/><circle cx="193" cy="132" r="3.0" fill="#fff" opacity="0.80"/><circle cx="104" cy="84" r="2.9" fill="#fff" opacity="0.46"/><circle cx="393" cy="77" r="3.0" fill="#fff" opacity="0.84"/><circle cx="750" cy="152" r="1.9" fill="#fff" opacity="0.51"/><circle cx="653" cy="466" r="1.2" fill="#fff" opacity="0.51"/><circle cx="397" cy="237" r="1.1" fill="#fff" opacity="0.62"/><circle cx="447" cy="355" r="1.4" fill="#fff" opacity="0.94"/><circle cx="303" cy="237" r="1.0" fill="#fff" opacity="0.54"/><circle cx="755" cy="207" r="1.0" fill="#fff" opacity="0.53"/><circle cx="440" cy="358" r="2.1" fill="#fff" opacity="0.81"/><circle cx="431" cy="433" r="1.5" fill="#fff" opacity="0.80"/><circle cx="792" cy="328" r="2.4" fill="#fff" opacity="0.87"/><circle cx="695" cy="92" r="2.3" fill="#fff" opacity="0.65"/><circle cx="320" cy="133" r="2.3" fill="#fff" opacity="0.45"/><circle cx="429" cy="124" r="2.6" fill="#fff" opacity="0.79"/><circle cx="644" cy="80" r="1.5" fill="#fff" opacity="0.63"/><circle cx="466" cy="10" r="2.2" fill="#fff" opacity="0.63"/><circle cx="691" cy="338" r="2.9" fill="#fff" opacity="0.50"/><circle cx="670" cy="167" r="2.6" fill="#fff" opacity="0.61"/><circle cx="501" cy="464" r="2.9" fill="#fff" opacity="0.42"/><circle cx="556" cy="111" r="1.3" fill="#fff" opacity="0.83"/><circle cx="204" cy="265" r="1.7" fill="#fff" opacity="0.87"/><circle cx="467" cy="277" r="1.4" fill="#fff" opacity="0.66"/><circle cx="16" cy="327" r="2.6" fill="#fff" opacity="0.60"/><circle cx="351" cy="210" r="2.5" fill="#fff" opacity="0.65"/><circle cx="700" cy="94" r="1.8" fill="#fff" opacity="0.82"/><circle cx="125" cy="373" r="3.0" fill="#fff" opacity="0.60"/><circle cx="57" cy="129" r="1.5" fill="#fff" opacity="0.62"/><circle cx="13" cy="38" r="1.8" fill="#fff" opacity="0.63"/><circle cx="715" cy="345" r="1.7" fill="#fff" opacity="0.55"/><circle cx="229" cy="155" r="2.5" fill="#fff" opacity="0.92"/><circle cx="539" cy="497" r="1.4" fill="#fff" opacity="0.84"/><circle cx="401" cy="236" r="1.4" fill="#fff" opacity="0.47"/>
<path d="M0 500V420q120-30 260 0t280-10 260 10V500z" fill="#f4f9ff"/><path d="M90 270L128.25 346.5H115.5L137.8125 406.0H119.42307692307692L147.375 440H32.625L60.57692307692308 406.0H42.1875L64.5 346.5H51.75z" fill="#14462c"/><path d="M170 320L197.0 374.0H188.0L203.75 416.0H190.76923076923077L210.5 440H129.5L149.23076923076923 416.0H136.25L152.0 374.0H143.0z" fill="#14462c"/><path d="M640 250L682.75 335.5H668.5L693.4375 402.0H672.8846153846154L704.125 440H575.875L607.1153846153846 402.0H586.5625L611.5 335.5H597.25z" fill="#14462c"/><path d="M730 310L759.25 368.5H749.5L766.5625 414.0H752.5L773.875 440H686.125L707.5 414.0H693.4375L710.5 368.5H700.75z" fill="#14462c"/>
<g><rect x="360" y="400" width="80" height="50" fill="#e3283e"/><rect x="394" y="400" width="12" height="50" fill="#ffd23f"/><rect x="360" y="420" width="80" height="10" fill="#ffd23f"/>
<rect x="450" y="420" width="46" height="30" fill="#2f8f5a"/><rect x="468" y="420" width="10" height="30" fill="#fff"/></g>
<g fill="#ffd23f"><circle cx="80" cy="330" r="4"/><circle cx="100" cy="360" r="4"/><circle cx="640" cy="300" r="4"/><circle cx="655" cy="340" r="4"/><circle cx="625" cy="370" r="4"/><circle cx="730" cy="370" r="4"/></g></svg>
