<svg xmlns="http://www.w3.org/2000/svg" viewBox="0 0 200 200"><style>.t{animation:t 2.4s ease-in-out infinite;transform-origin:100px 180px}.l{animation:l 1s steps(1) infinite}.l2{animation-delay:.33s}.l3{animation-delay:.66s}.s{animation:s 1.8s ease-in-out infinite;transform-origin:100px 28px}@keyframes t{50%{transform:rotate(2deg)}}@keyframes l{50%{opacity:.25}}@keyframes s{50%{transform:scale(1.2) rotate(10deg)}}</style><g class="t"><rect x="88" y="154" width="24" height="26" fill="#6b3d1e" stroke="#1a2a10" stroke-width="5"/>
<path d="M100 36 140 88h-18l34 38h-20l36 34H28l36-34H44l34-38H60z" fill="#2f8f5a" stroke="#0e2418" stroke-width="5" stroke-linejoin="round"/>
<path d="M72 92q28 14 56 0M60 130q40 18 80 0" fill="none" stroke="#ffd23f" stroke-width="4"/>
<g class="l" fill="#e3283e"><circle cx="82" cy="98" r="6"/><circle cx="130" cy="138" r="6"/></g><g class="l l2" fill="#35c7ff"><circle cx="116" cy="100" r="6"/><circle cx="74" cy="136" r="6"/></g><g class="l l3" fill="#fff"><circle cx="100" cy="70" r="5"/><circle cx="100" cy="140" r="6"/></g></g>
<path class="s" d="M100 12l5 11 12 1-9 8 3 12-11-6-11 6 3-12-9-8 12-1z" fill="#ffd23f" stroke="#7a5a00" stroke-width="3" stroke-linejoin="round"/></svg>
